<svg width="32" height="20" viewBox="0 0 32 20" fill="none" xmlns="http://www.w3.org/2000/svg">
<path fill-rule="evenodd" clip-rule="evenodd" d="M29.3333 4H29.6547C30.9413 4 31.988 5.04667 31.988 6.33333V13.6667C31.988 14.9533 30.9413 16 29.6547 16H29.3333V16.3333C29.3333 18.356 27.688 20 25.6667 20H3.66667C1.64533 20 0 18.356 0 16.3333V3.66667C0 1.644 1.64533 0 3.66667 0H25.6667C27.688 0 29.3333 1.644 29.3333 3.66667V4ZM8.33333 16C8.88533 16 9.33333 15.552 9.33333 15V5C9.33333 4.448 8.88533 4 8.33333 4H5C4.448 4 4 4.448 4 5V15C4 15.552 4.448 16 5 16H8.33333ZM17.3333 15C17.3333 15.552 16.8853 16 16.3333 16H13C12.448 16 12 15.552 12 15V5C12 4.448 12.448 4 13 4H16.3333C16.8853 4 17.3333 4.448 17.3333 5V15ZM24.3333 16C24.8853 16 25.3333 15.552 25.3333 15V5C25.3333 4.448 24.8853 4 24.3333 4H21C20.448 4 20 4.448 20 5V15C20 15.552 20.448 16 21 16H24.3333Z" fill="white"/>
</svg>
