<svg width="18" height="28" viewBox="0 0 18 28" fill="none" xmlns="http://www.w3.org/2000/svg">
<path fill-rule="evenodd" clip-rule="evenodd" d="M11.2292 13.9309L17.2036 7.93159C17.5518 7.58281 17.7246 7.09524 17.6771 6.60463C17.6284 6.11341 17.3618 5.66968 16.954 5.39455L9.35688 0.28211C8.84984 -0.0599766 8.19062 -0.0928461 7.65193 0.19385C7.11262 0.481154 6.76506 1.04237 6.76506 1.65228V9.59394L2.81523 5.60089C2.17245 4.95324 1.13645 4.94898 0.488798 5.59055C-0.158854 6.23333 -0.163724 7.27968 0.479059 7.92733L6.4321 13.9297L0.479059 19.9314C-0.163724 20.5785 -0.158854 21.6248 0.488798 22.2688C1.13645 22.911 2.17306 22.9073 2.81523 22.2585L6.76506 18.2654V26.2065C6.76506 26.817 7.11262 27.3782 7.65193 27.6649C8.19062 27.9522 8.84984 27.9187 9.35688 27.576L16.9534 22.4654C17.3625 22.1897 17.6285 21.7453 17.6765 21.2553C17.724 20.7641 17.5511 20.2778 17.203 19.9278L11.2292 13.9309ZM10.1178 4.75724L13.4759 7.01733L10.1178 10.3889V4.75724ZM10.1178 17.4735V23.1052L13.4759 20.8451L10.1178 17.4735Z" fill="white"/>
</svg>
